<mxfile host="65bd71144e">
    <diagram id="sZX61pPik9CgZUGlImG2" name="Page-1">
        <mxGraphModel dx="1109" dy="792" grid="1" gridSize="10" guides="1" tooltips="1" connect="1" arrows="1" fold="1" page="0" pageScale="1" pageWidth="850" pageHeight="1100" background="#ffffff" math="0" shadow="0">
            <root>
                <mxCell id="0"/>
                <mxCell id="1" parent="0"/>
                <mxCell id="5" style="edgeStyle=none;html=1;exitX=0;exitY=0.5;exitDx=0;exitDy=0;fontColor=#fc6330;endArrow=none;endFill=0;strokeColor=#666666;" parent="1" source="2" edge="1">
                    <mxGeometry relative="1" as="geometry">
                        <mxPoint x="110" y="200" as="targetPoint"/>
                    </mxGeometry>
                </mxCell>
                <mxCell id="2" value="" style="whiteSpace=wrap;html=1;aspect=fixed;fillColor=#FC6330;strokeColor=none;" parent="1" vertex="1">
                    <mxGeometry x="160" y="160" width="80" height="80" as="geometry"/>
                </mxCell>
                <mxCell id="3" value="&lt;font color=&quot;#fc6330&quot;&gt;&lt;b&gt;Input 1&lt;/b&gt;&lt;/font&gt;" style="text;html=1;strokeColor=none;fillColor=none;align=center;verticalAlign=middle;whiteSpace=wrap;rounded=0;" parent="1" vertex="1">
                    <mxGeometry x="100" y="180" width="60" height="18" as="geometry"/>
                </mxCell>
                <mxCell id="6" value="&lt;b&gt;&lt;font color=&quot;#ffffff&quot;&gt;Equalizer&lt;/font&gt;&lt;/b&gt;" style="text;html=1;align=center;verticalAlign=middle;resizable=0;points=[];autosize=1;strokeColor=none;fillColor=none;fontColor=#fc6330;" parent="1" vertex="1">
                    <mxGeometry x="164.5" y="187" width="71" height="26" as="geometry"/>
                </mxCell>
                <mxCell id="15" style="edgeStyle=none;html=1;exitX=0;exitY=0.5;exitDx=0;exitDy=0;fontColor=#fc6330;endArrow=none;endFill=0;strokeColor=#666666;" parent="1" source="16" edge="1">
                    <mxGeometry relative="1" as="geometry">
                        <mxPoint x="110" y="320" as="targetPoint"/>
                    </mxGeometry>
                </mxCell>
                <mxCell id="16" value="" style="whiteSpace=wrap;html=1;aspect=fixed;fillColor=#FC6330;strokeColor=none;" parent="1" vertex="1">
                    <mxGeometry x="160" y="280" width="80" height="80" as="geometry"/>
                </mxCell>
                <mxCell id="17" value="&lt;font color=&quot;#fc6330&quot;&gt;&lt;b&gt;Input 1&lt;/b&gt;&lt;/font&gt;" style="text;html=1;strokeColor=none;fillColor=none;align=center;verticalAlign=middle;whiteSpace=wrap;rounded=0;" parent="1" vertex="1">
                    <mxGeometry x="100" y="300" width="60" height="18" as="geometry"/>
                </mxCell>
                <mxCell id="18" value="&lt;b&gt;&lt;font color=&quot;#ffffff&quot;&gt;Equalizer&lt;/font&gt;&lt;/b&gt;" style="text;html=1;align=center;verticalAlign=middle;resizable=0;points=[];autosize=1;strokeColor=none;fillColor=none;fontColor=#fc6330;" parent="1" vertex="1">
                    <mxGeometry x="164.5" y="307" width="71" height="26" as="geometry"/>
                </mxCell>
            </root>
        </mxGraphModel>
    </diagram>
</mxfile>